<svg xmlns="http://www.w3.org/2000/svg" width="100" height="100" viewBox="0 0 100 100">
    <g fill="none" fill-rule="evenodd">
        <circle cx="50" cy="50" r="50" fill="#FFDD04"/>
        <path fill="#000" d="M22.46 43.578h2.4v-2.402h-2.4v2.402zm28.129 0h2.4v-2.402h-2.4v2.402zm38.623 3.148v-.747h-3.407v.36l1.308.114v6.612l-1.294.1v.36h5.003v-.36l-1.308-.1v-5.98c.388-.244.92-.589 1.696-.646l.403 1.883h.92v-2.53c-1.022 0-2.041.086-3.32.934zm-7.115 2.817c0-.59-.043-1.754-.186-2.285-.187-.633-.518-1.078-1.31-1.078-.775 0-1.12.445-1.307 1.078-.158.517-.187 1.696-.187 2.285h2.99zm1.638-2.83c.647.617.935 1.565.935 2.874v.445h-5.577c.014.776.072 1.725.402 2.315.331.574.906.948 1.984.948 1.236 0 2.256-.374 2.472-.474v.517c-.216.086-1.25.403-2.817.403-1.35 0-2.674-.302-3.463-1.02-.849-.777-1.108-1.855-1.108-2.977 0-1.192.317-2.299 1.108-3.018.703-.632 1.739-.934 3.06-.934 1.395 0 2.372.302 3.004.92zm-11.972 1.594c0-.69-.058-1.193-.245-1.551-.187-.389-.489-.576-1.107-.576-.633 0-.935.216-1.136.633-.157.358-.2.847-.2 1.494 0 .618.043 1.079.172 1.423.187.475.489.69 1.164.69.647 0 .949-.201 1.15-.618.144-.344.201-.848.201-1.495zm.33-2.343l3.047-.043v.805l-1.869-.187c.389.274.79.892.79 1.768 0 1.366-1.02 2.501-3.592 2.501-.719 0-1.28-.115-1.395-.144-.129.087-.632.518-.632 1.007 0 .546.546.69 1.38.69h2.328c1.423 0 2.573.733 2.573 2.04 0 1.985-2.285 2.573-4.168 2.573-1.912 0-3.191-.272-3.45-.344v-.562c.302.088 1.681.447 3.306.447.547 0 1.193-.044 1.653-.259.402-.202.676-.532.676-1.02 0-.633-.532-.935-1.466-.935H69.26c-1.423 0-2.544-.345-2.544-1.696 0-.977 1.05-1.61 1.81-2.027-.631-.186-1.767-.747-1.767-2.27 0-1.625 1.323-2.516 3.579-2.516.776 0 1.74.172 1.754.172zm-7.907 2.07c0-.503-.072-1.193-.531-1.667-.331-.345-.848-.575-1.625-.575-1.293 0-2.73.632-3.32.906v-.719h-3.493v.36l1.308.1v6.626l-1.308.1v.36h5.017v-.36l-1.308-.1v-5.98c.114-.057 1.05-.502 1.767-.502.806 0 1.093.36 1.093 1.307v5.635h3.709v-.36l-1.309-.1v-5.031zM52.99 45.979h-3.71v.36l1.309.114v6.612l-1.294.1v.36h5.002v-.36l-1.307-.1V45.98zm-5.837 2.055c0-.503-.071-1.193-.53-1.667-.332-.345-.85-.575-1.626-.575-1.293 0-2.73.632-3.32.906v-.719h-3.492v.36l1.307.1v6.626l-1.307.1v.36H43.2v-.36l-1.308-.1v-5.98c.114-.057 1.05-.502 1.767-.502.806 0 1.093.36 1.093 1.307v5.635h3.709v-.36l-1.309-.1v-5.031zm-11.096 0c0-.503-.072-1.193-.531-1.667-.332-.345-.848-.575-1.625-.575-1.294 0-2.73.632-3.32.906v-.719h-3.493v.36l1.308.1v6.626l-1.308.1v.36h5.016v-.36l-1.307-.1v-5.98c.115-.057 1.049-.502 1.767-.502.806 0 1.093.36 1.093 1.307v5.635h3.708v-.36l-1.308-.1v-5.031zM24.86 53.065l1.308.1v.36h-5.002v-.36l1.293-.1v-6.612l-1.308-.115-1.293.101-1.71 7.086H15.76l-1.436-6.137-1.38 6.137H10.6l-1.955-7.086-1.293-.1v-.36h5.088v.36l-1.293.1 1.365 6.353h.143l1.496-6.799h2.17l1.422 6.799h.145l1.48-6.813h5.491v7.086z"/>
    </g>
</svg>
